<?xml version="1.0" standalone="no"?>
<!DOCTYPE svg PUBLIC "-//W3C//DTD SVG 20010904//EN"
 "http://www.w3.org/TR/2001/REC-SVG-20010904/DTD/svg10.dtd">
<svg version="1.0" xmlns="http://www.w3.org/2000/svg"
 width="330.000000pt" height="150.000000pt" viewBox="0 0 330.000000 150.000000"
 preserveAspectRatio="xMidYMid meet">

<g transform="translate(0.000000,150.000000) scale(0.100000,-0.100000)"
fill="#000000" stroke="none">
<path d="M362 907 l-122 -122 123 -123 122 -122 123 123 122 122 -123 123
-122 122 -123 -123z m273 -87 l-25 -25 -87 87 -87 87 24 26 24 26 88 -88 88
-88 -25 -25z m-247 3 c-86 -86 -87 -87 -108 -68 -11 10 -20 23 -20 29 0 6 37
48 82 93 l83 83 25 -25 25 -25 -87 -87z m155 -95 l-57 -58 -58 57 -58 57 57
58 57 58 58 -57 58 -57 -57 -58z m155 79 l22 -23 -88 -87 -88 -88 -24 26 -24
26 84 84 c47 47 87 85 91 85 3 0 15 -10 27 -23z m-248 -122 l84 -84 -24 -26
-24 -26 -88 88 -88 87 22 23 c12 13 24 23 27 23 4 0 44 -38 91 -85z"/>
<path d="M954 785 c0 -137 2 -195 3 -128 2 67 2 179 0 250 -1 70 -3 16 -3
-122z"/>
<path d="M1190 789 l0 -161 108 3 c116 5 156 19 195 70 50 69 23 190 -52 228
-33 17 -59 21 -146 21 l-105 0 0 -161z m209 115 c49 -35 65 -123 32 -184 -21
-40 -62 -59 -133 -59 l-48 -1 0 130 0 130 63 0 c42 0 70 -5 86 -16z"/>
<path d="M1520 935 c0 -12 13 -15 60 -15 l60 0 0 -145 0 -145 35 0 35 0 0 145
0 145 60 0 c47 0 60 3 60 15 0 13 -24 15 -155 15 -131 0 -155 -2 -155 -15z"/>
<path d="M1880 790 l0 -160 135 0 c113 0 135 2 135 15 0 12 -18 15 -105 15
l-105 0 0 60 0 60 85 0 c69 0 85 3 85 15 0 12 -16 15 -85 15 l-85 0 0 55 0 55
105 0 c87 0 105 3 105 15 0 13 -22 15 -135 15 l-135 0 0 -160z"/>
<path d="M2201 933 c8 -10 37 -44 63 -76 l48 -58 -43 -55 c-24 -30 -55 -68
-68 -84 l-24 -30 42 0 c22 0 41 3 41 8 1 4 21 30 45 57 l45 50 53 -58 c47 -53
55 -58 86 -55 l34 3 -54 65 c-30 36 -60 72 -67 81 -11 14 -5 25 35 75 84 102
81 94 37 94 -35 -1 -43 -6 -77 -50 -21 -28 -42 -50 -47 -50 -4 0 -25 23 -46
50 -34 45 -42 50 -78 50 -36 0 -38 -1 -25 -17z"/>
<path d="M2570 790 l0 -160 30 0 30 0 0 160 0 160 -30 0 -30 0 0 -160z"/>
<path d="M2680 935 c0 -12 13 -15 60 -15 l60 0 0 -145 0 -145 30 0 30 0 0 145
0 145 65 0 c51 0 65 3 65 15 0 13 -24 15 -155 15 -131 0 -155 -2 -155 -15z"/>
</g>
</svg>
